<svg width="20" height="20" viewBox="0 0 20 20" fill="none" xmlns="http://www.w3.org/2000/svg">
  <path fill-rule="evenodd" clip-rule="evenodd" d="M9.99405 1.04321C10.232 1.04321 10.4492 1.17828 10.5545 1.39161L12.9807 6.30766L18.4054 7.09384C18.6409 7.12798 18.8366 7.29296 18.9102 7.51934C18.9837 7.74572 18.9222 7.99421 18.7517 8.16024L14.8207 11.9867L15.7476 17.39C15.7878 17.6246 15.6913 17.8617 15.4987 18.0015C15.3061 18.1413 15.0507 18.1596 14.8402 18.0486L9.99955 15.4978L5.1474 18.0489C4.93682 18.1596 4.68165 18.1412 4.48918 18.0013C4.29671 17.8615 4.20032 17.6245 4.24055 17.39L5.16744 11.9867L1.23644 8.16024C1.06588 7.99421 1.00442 7.74572 1.07794 7.51934C1.15146 7.29296 1.34718 7.12798 1.58274 7.09384L7.0074 6.30766L9.43359 1.39161C9.53887 1.17828 9.75615 1.04321 9.99405 1.04321ZM9.99405 3.08045L7.98284 7.15565C7.89177 7.34019 7.71569 7.46807 7.51202 7.49758L3.01701 8.14903L6.27499 11.3204C6.42251 11.4639 6.48986 11.671 6.45505 11.8739L5.68667 16.3531L9.70903 14.2383C9.8913 14.1425 10.1091 14.1426 10.2913 14.2386L14.3012 16.3517L13.533 11.8739C13.4982 11.671 13.5656 11.4639 13.7131 11.3204L16.9711 8.14903L12.4761 7.49758C12.2724 7.46807 12.0963 7.34019 12.0053 7.15565L9.99405 3.08045Z" fill="#1369FF"/>
</svg>
