<svg width="20" height="20" viewBox="0 0 20 20" fill="none" xmlns="http://www.w3.org/2000/svg">
<g clip-path="url(#clip0_117_32)">
<path d="M6.86922 6.11672L1.55255 6.88756L1.45838 6.90672C1.31583 6.94457 1.18588 7.01956 1.08179 7.12406C0.977707 7.22855 0.903219 7.3588 0.865934 7.5015C0.82865 7.64419 0.829905 7.79423 0.869572 7.93628C0.909239 8.07834 0.985896 8.20732 1.09172 8.31006L4.94338 12.0592L4.03505 17.3551L4.02422 17.4467C4.01549 17.5942 4.0461 17.7413 4.11292 17.873C4.17974 18.0047 4.28037 18.1163 4.4045 18.1963C4.52862 18.2764 4.67179 18.322 4.81934 18.3285C4.96689 18.335 5.11352 18.3022 5.24422 18.2334L9.99922 15.7334L14.7434 18.2334L14.8267 18.2717C14.9643 18.3259 15.1138 18.3425 15.2598 18.3199C15.4059 18.2972 15.5434 18.2361 15.658 18.1428C15.7727 18.0495 15.8605 17.9273 15.9124 17.7889C15.9643 17.6505 15.9785 17.5008 15.9534 17.3551L15.0442 12.0592L18.8975 8.30922L18.9625 8.23839C19.0554 8.12403 19.1163 7.9871 19.139 7.84155C19.1617 7.696 19.1454 7.54704 19.0918 7.40983C19.0382 7.27263 18.9492 7.15208 18.8338 7.06049C18.7184 6.96889 18.5808 6.9095 18.435 6.88839L13.1184 6.11672L10.7417 1.30006C10.6729 1.1605 10.5665 1.04299 10.4344 0.960811C10.3023 0.878636 10.1498 0.835083 9.99422 0.835083C9.83864 0.835083 9.68616 0.878636 9.55406 0.960811C9.42195 1.04299 9.31549 1.1605 9.24672 1.30006L6.86922 6.11672Z" fill="#1369FF"/>
</g>
<defs>
<clipPath id="clip0_117_32">
<rect width="20" height="20" fill="white"/>
</clipPath>
</defs>
</svg>
