<svg width="50" height="50" viewBox="0 0 50 50" fill="none" xmlns="http://www.w3.org/2000/svg">
<g clip-path="url(#clip0_120_6)">
<path d="M25.0001 49.5834C38.5771 49.5834 49.5834 38.577 49.5834 25C49.5834 11.423 38.5771 0.416687 25.0001 0.416687C11.4231 0.416687 0.416748 11.423 0.416748 25C0.416748 38.577 11.4231 49.5834 25.0001 49.5834Z" fill="#00D352" stroke="#D4D3D3" stroke-width="0.5"/>
<path d="M27.0289 15.8438L24.2925 11H18.7846L22.5832 15.8438H27.0289ZM34 18.2302H29.1732V19.62C27.6608 18.6295 25.8928 18.0276 23.9994 18.0276C18.4739 18.0264 14 22.5017 14 28.0138C14 33.5318 18.4797 38 24.0006 38C25.8928 38 27.662 37.3969 29.1732 36.4004V37.7915H34V18.2302ZM23.9994 33.3529C21.0485 33.3529 18.6533 30.9594 18.6533 28.0138C18.6533 25.067 21.0485 22.6747 23.9994 22.6747C26.9503 22.6747 29.3456 25.061 29.3456 28.0138C29.3397 30.9606 26.9503 33.3529 23.9994 33.3529Z" fill="black"/>
</g>
<defs>
<clipPath id="clip0_120_6">
<rect width="50" height="50" fill="white"/>
</clipPath>
</defs>
</svg>
