<svg width="50" height="50" viewBox="0 0 50 50" fill="none" xmlns="http://www.w3.org/2000/svg">
<mask id="mask0_119_45" style="mask-type:alpha" maskUnits="userSpaceOnUse" x="0" y="0" width="50" height="50">
<circle cx="25" cy="25" r="25" fill="#D9D9D9"/>
</mask>
<g mask="url(#mask0_119_45)">
<path d="M41.5238 0.0762329H8.44051C3.83814 0.0762329 0.107178 3.80719 0.107178 8.40957V41.5221C0.107178 46.1244 3.83814 49.8554 8.44051 49.8554H41.5238C46.1262 49.8554 49.8572 46.1244 49.8572 41.5221V8.40957C49.8572 3.80719 46.1262 0.0762329 41.5238 0.0762329Z" fill="url(#paint0_linear_119_45)"/>
<path d="M16.7097 28.8837V23.2708C16.7097 21.6787 15.8572 20.9229 14.4263 20.9229C13.2359 20.9229 12.2067 21.6304 11.7563 22.3379C11.4667 21.4533 10.743 20.9229 9.60133 20.9229C8.41091 20.9229 7.38174 21.6625 7.06008 22.1292V21.1158H5.01758V28.8833H7.06008V23.6571C7.36549 23.2229 7.96091 22.7404 8.66841 22.7404C9.50466 22.7404 9.82633 23.255 9.82633 23.9787V28.8833H11.8847V23.6408C12.1742 23.2225 12.7692 22.74 13.493 22.74C14.3292 22.74 14.6513 23.2546 14.6513 23.9783V28.8833L16.7097 28.8837ZM22.3226 29.0767C19.7655 29.0767 18.2217 27.2112 18.2217 24.9917C18.2217 22.7883 19.7655 20.9229 22.3226 20.9229C24.8959 20.9229 26.4397 22.7883 26.4397 24.9917C26.4397 27.2112 24.8959 29.0767 22.3226 29.0767ZM22.3226 27.2596C23.5934 27.2596 24.3167 26.2137 24.3167 24.9917C24.3167 23.7854 23.593 22.7404 22.3226 22.7404C21.0517 22.7404 20.3442 23.7854 20.3442 24.9917C20.3442 26.2142 21.0522 27.2596 22.3226 27.2596ZM35.2367 28.8837V23.3996C35.2367 21.8879 34.4167 20.9229 32.7117 20.9229C31.4409 20.9229 30.4926 21.5342 29.9938 22.1292V21.1158H27.9513V28.8837H29.9938V23.6571C30.3313 23.1904 30.9588 22.7404 31.763 22.7404C32.6313 22.7404 33.1942 23.1104 33.1942 24.1879V28.8837H35.2367ZM40.8655 29.0767C38.3084 29.0767 36.7647 27.2112 36.7647 24.9917C36.7647 22.7883 38.3084 20.9229 40.8655 20.9229C43.4388 20.9229 44.9826 22.7883 44.9826 24.9917C44.9826 27.2112 43.4388 29.0767 40.8655 29.0767ZM40.8655 27.2596C42.1363 27.2596 42.8597 26.2137 42.8597 24.9917C42.8597 23.7854 42.1359 22.7404 40.8655 22.7404C39.5947 22.7404 38.8872 23.7854 38.8872 24.9917C38.8872 26.2142 39.5951 27.2596 40.8655 27.2596Z" fill="white"/>
</g>
<defs>
<linearGradient id="paint0_linear_119_45" x1="25.5593" y1="0.667483" x2="25.5593" y2="49.1625" gradientUnits="userSpaceOnUse">
<stop stop-color="#373B45"/>
<stop offset="1" stop-color="#181A1D"/>
</linearGradient>
</defs>
</svg>
