<svg width="50" height="50" viewBox="0 0 50 50" fill="none" xmlns="http://www.w3.org/2000/svg">
<g clip-path="url(#clip0_119_36)">
<path d="M25.0001 49.5834C38.5771 49.5834 49.5834 38.577 49.5834 25C49.5834 11.423 38.5771 0.416687 25.0001 0.416687C11.4231 0.416687 0.416748 11.423 0.416748 25C0.416748 38.577 11.4231 49.5834 25.0001 49.5834Z" fill="white" stroke="#D4D3D3" stroke-width="0.5"/>
<path fill-rule="evenodd" clip-rule="evenodd" d="M11.6667 38.0675L22.3125 38.0777L22.3235 27.7554L11.6775 27.7452L11.6667 38.0675Z" fill="black"/>
<path fill-rule="evenodd" clip-rule="evenodd" d="M11.7079 11.6667L11.6943 24.5162L14.5085 24.519C21.9152 24.5264 25.6672 28.1733 25.6592 35.3567L25.6564 38.0845L38.9052 38.0975L38.9335 11.6936L11.7079 11.6667ZM33.2984 17.1467L33.2819 32.634L31.1098 32.632C30.1809 24.9722 25.2231 20.155 17.3275 19.2391L17.3295 17.131L33.2984 17.1467Z" fill="#75AF26"/>
</g>
<defs>
<clipPath id="clip0_119_36">
<rect width="50" height="50" fill="white"/>
</clipPath>
</defs>
</svg>
