<svg width="50" height="50" viewBox="0 0 50 50" fill="none" xmlns="http://www.w3.org/2000/svg">
<path d="M50 0.581055H0V50.5849H50V0.581055Z" fill="#FEE600"/>
<path fill-rule="evenodd" clip-rule="evenodd" d="M36.1561 22.0297L42.5287 15.6571L44.2321 17.3606L44.2435 17.3492C44.2435 16.2541 43.9204 12.4898 40.8975 9.54305C37.5135 6.24266 34.1256 8.17422 32.9545 9.33776L26.8176 15.4746L28.3386 16.9955L25.0002 20.3339L21.6617 16.9955L23.1827 15.4746L17.0458 9.33776C15.8786 8.17041 12.4907 6.24266 9.10285 9.54305C6.08003 12.4898 5.75684 16.2541 5.75684 17.3492L5.76825 17.3606L7.47167 15.6571L13.8443 22.0297L15.601 20.2731V16.0754L17.407 17.8814V22.9575L19.8937 25.4441L6.98877 38.3492L12.0953 43.4556L25.0002 30.5507L37.9051 43.4556L43.0115 38.3492L30.1066 25.4441L32.5933 22.9575V17.8814L34.3994 16.0754V20.2731L36.1561 22.0297Z" fill="#2B2D33"/>
</svg>
